<svg xmlns="http://www.w3.org/2000/svg" width="734.2" height="196.0" viewBox="0 0 734.17 196.00" role="img"><title>noosphr</title><g transform="translate(34,34.000) scale(1.28000)"><circle cx="50" cy="50" r="34" fill="none" stroke="#0A0A0A" stroke-width="3.2"/><g transform="translate(25.0565,72.0000) scale(0.093597,-0.093597)"><path d="M368.00048828125 280.0V0.0H460.4974365234375V290.999755859375Q460.4974365234375 373.8997802734375 418.54730224609375 421.9998779296875Q376.59716796875 470.0999755859375 301.4976806640625 470.0999755859375Q255.597900390625 470.0999755859375 221.097900390625 449.95001220703125Q186.597900390625 429.800048828125 163.997802734375 388.4998779296875V460.0H72.5006103515625V0.0H163.997802734375V280.0Q163.997802734375 312.9002685546875 177.74798583984375 337.75054931640625Q191.4981689453125 362.600830078125 216.64849853515625 376.35101318359375Q241.798828125 390.1011962890625 274.999267578125 390.1011962890625Q321.19970703125 390.1011962890625 344.60009765625 362.25091552734375Q368.00048828125 334.400634765625 368.00048828125 280.0Z" fill="#0A0A0A"/></g></g><g transform="translate(186.2212,128.0000) scale(0.127660,-0.127660)"><path d="M371.600341796875 286.4013671875V0.0H440.39794921875V294.801025390625Q440.39794921875 375.240478515625 399.73834228515625 422.6202392578125Q359.0787353515625 470.0 286.3988037109375 470.0Q238.998291015625 470.0 202.97796630859375 446.87933349609375Q166.9576416015625 423.7586669921875 145.39794921875 378.39794921875V460.0H76.600341796875V0.0H145.39794921875V280.0Q145.39794921875 316.240478515625 161.0181884765625 344.6409912109375Q176.638427734375 373.04150390625 204.81878662109375 389.22186279296875Q232.9991455078125 405.4022216796875 269.5994873046875 405.4022216796875Q320.8001708984375 405.4022216796875 346.20025634765625 374.72186279296875Q371.600341796875 344.04150390625 371.600341796875 286.4013671875ZM653.600341796875 230.0Q653.600341796875 161.0 684.9850230497473 106.5Q716.3697043026195 52.0 770.1720150218291 21.0Q823.9743257410386 -10.0 890.7290445963542 -10.0Q958.4801025390625 -10.0 1011.9000854492188 21.0Q1065.320068359375 52.0 1096.6600341796875 106.5Q1128 161 1128 230Q1128 300 1096.6600341796875 354.0Q1065.320068359375 408.0 1011.9000854492188 439.0Q958.4801025390625 470.0 890.7290445963542 470.0Q823.9743257410386 470.0 770.1720150218291 439.0Q716.3697043026195 408.0 684.9850230497473 354.0Q653.600341796875 300.0 653.600341796875 230.0ZM723.2379150390625 229.9679931640625Q723.2379150390625 281.0406494140625 745.1732215881348 320.9001277043269Q767.108528137207 360.75960599459137 805.0940589904785 383.0809138371394Q843.07958984375 405.4022216796875 890.8801879882812 405.4022216796875Q938.6807861328125 405.4022216796875 976.581298828125 383.04193115234375Q1014.4818115234375 360.681640625 1036.422119140625 320.83026123046875Q1058.3624267578125 280.9788818359375 1058.3624267578125 229.9691162109375Q1058.3624267578125 178.9593505859375 1036.422119140625 139.558837890625Q1014.4818115234375 100.1583251953125 976.581298828125 77.3780517578125Q938.6807861328125 54.5977783203125 890.8801879882812 54.5977783203125Q843.07958984375 54.5977783203125 805.0990600585938 77.3780517578125Q767.1185302734375 100.1583251953125 745.17822265625 139.5268310546875Q723.2379150390625 178.8953369140625 723.2379150390625 229.9679931640625ZM1301.600341796875 230.0Q1301.600341796875 161.0 1332.9850230497473 106.5Q1364.3697043026195 52.0 1418.172015021829 21.0Q1471.9743257410387 -10.0 1538.7290445963542 -10.0Q1606.4801025390625 -10.0 1659.9000854492188 21.0Q1713.320068359375 52.0 1744.6600341796875 106.5Q1776 161 1776 230Q1776 300 1744.6600341796875 354.0Q1713.320068359375 408.0 1659.9000854492188 439.0Q1606.4801025390625 470.0 1538.7290445963542 470.0Q1471.9743257410387 470.0 1418.172015021829 439.0Q1364.3697043026195 408.0 1332.9850230497473 354.0Q1301.600341796875 300.0 1301.600341796875 230.0ZM1371.2379150390625 229.9679931640625Q1371.2379150390625 281.0406494140625 1393.1732215881348 320.9001277043269Q1415.108528137207 360.75960599459137 1453.0940589904785 383.0809138371394Q1491.07958984375 405.4022216796875 1538.8801879882812 405.4022216796875Q1586.6807861328125 405.4022216796875 1624.581298828125 383.04193115234375Q1662.4818115234375 360.681640625 1684.422119140625 320.83026123046875Q1706.3624267578125 280.9788818359375 1706.3624267578125 229.9691162109375Q1706.3624267578125 178.9593505859375 1684.422119140625 139.558837890625Q1662.4818115234375 100.1583251953125 1624.581298828125 77.3780517578125Q1586.6807861328125 54.5977783203125 1538.8801879882812 54.5977783203125Q1491.07958984375 54.5977783203125 1453.0990600585938 77.3780517578125Q1415.1185302734375 100.1583251953125 1393.17822265625 139.5268310546875Q1371.2379150390625 178.8953369140625 1371.2379150390625 229.9679931640625ZM2000.5986328125 136.9991455078125 1946.0804443359375 104.0804443359375Q1957.64013671875 76.2802734375 1981.6998291015625 49.88018798828125Q2005.759521484375 23.4801025390625 2042.119384765625 6.74005126953125Q2078.479248046875 -10.0 2125.2794189453125 -10.0Q2194.3590087890625 -10.0 2236.8988037109375 29.039794921875Q2279.4385986328125 68.07958984375 2279.4385986328125 127.9195556640625Q2279.4385986328125 168.119384765625 2260.0986328125 193.79931640625Q2240.7586669921875 219.479248046875 2208.3187866210938 237.41912841796875Q2175.87890625 255.3590087890625 2136.9991455078125 270.23876953125Q2111.23876953125 280.23876953125 2088.1985473632812 291.31878662109375Q2065.1583251953125 302.3988037109375 2050.67822265625 317.75909423828125Q2036.1981201171875 333.119384765625 2036.1981201171875 354.8001708984375Q2036.1981201171875 381.9610595703125 2056.4385986328125 395.2015380859375Q2076.6790771484375 408.4420166015625 2105.039794921875 408.4420166015625Q2145.0406494140625 408.4420166015625 2173.7807006835938 389.60162353515625Q2202.520751953125 370.76123046875 2220.560546875 343.160888671875L2275.918701171875 378.07958984375Q2262.7188720703125 404.07958984375 2238.9191284179688 424.47967529296875Q2215.119384765625 444.8797607421875 2183.259521484375 457.27984619140625Q2151.399658203125 469.679931640625 2113.439453125 469.679931640625Q2077.07958984375 469.679931640625 2043.7798461914062 456.75994873046875Q2010.4801025390625 443.8399658203125 1989.7802734375 417.320068359375Q1969.0804443359375 390.8001708984375 1969.0804443359375 350.600341796875Q1969.0804443359375 310.1202392578125 1989.100341796875 284.02032470703125Q2009.1202392578125 257.92041015625 2039.460205078125 241.98052978515625Q2069.8001708984375 226.0406494140625 2100.7603759765625 214.20068359375Q2128.880615234375 204.20068359375 2153.6007690429688 192.30059814453125Q2178.3209228515625 180.4005126953125 2194.0609741210938 163.100341796875Q2209.801025390625 145.8001708984375 2209.801025390625 120.35986328125Q2209.801025390625 88.7188720703125 2187.8204956054688 70.818359375Q2165.8399658203125 52.9178466796875 2128.6392822265625 52.9178466796875Q2097.5986328125 52.9178466796875 2072.9783935546875 64.3780517578125Q2048.358154296875 75.8382568359375 2030.67822265625 95.19854736328125Q2012.998291015625 114.558837890625 2000.5986328125 136.9991455078125ZM2556.39794921875 -220.0V460.0H2487.600341796875V-220.0ZM2944.7586669921875 230.0Q2944.7586669921875 304.8399658203125 2914.23876953125 358.3399658203125Q2883.7188720703125 411.8399658203125 2832.698974609375 440.91998291015625Q2781.6790771484375 470.0 2719.1591796875 470.0Q2661.51904296875 470.0 2617.8590087890625 440.039794921875Q2574.198974609375 410.07958984375 2549.7789916992188 356.33953857421875Q2525.3590087890625 302.5994873046875 2525.3590087890625 230.0Q2525.3590087890625 158.4005126953125 2549.7789916992188 104.16046142578125Q2574.198974609375 49.92041015625 2617.8590087890625 19.960205078125Q2661.51904296875 -10.0 2719.1591796875 -10.0Q2781.6790771484375 -10.0 2832.698974609375 19.08001708984375Q2883.7188720703125 48.1600341796875 2914.23876953125 102.1600341796875Q2944.7586669921875 156.1600341796875 2944.7586669921875 230.0ZM2875.12109375 230.0Q2875.12109375 174.2794189453125 2852.660888671875 134.87890625Q2830.20068359375 95.4783935546875 2792.9403076171875 75.0380859375Q2755.679931640625 54.5977783203125 2710.2794189453125 54.5977783203125Q2672.23876953125 54.5977783203125 2636.7984619140625 75.91827392578125Q2601.358154296875 97.23876953125 2578.8780517578125 136.71929931640625Q2556.39794921875 176.1998291015625 2556.39794921875 230.0Q2556.39794921875 283.8001708984375 2578.8780517578125 323.28070068359375Q2601.358154296875 362.76123046875 2636.7984619140625 384.08172607421875Q2672.23876953125 405.4022216796875 2710.2794189453125 405.4022216796875Q2755.679931640625 405.4022216796875 2792.9403076171875 384.9619140625Q2830.20068359375 364.5216064453125 2852.660888671875 325.20111083984375Q2875.12109375 285.880615234375 2875.12109375 230.0ZM3226.39794921875 780.0H3157.600341796875V0.0H3226.39794921875ZM3452.600341796875 286.4013671875V0.0H3521.39794921875V294.801025390625Q3521.39794921875 352.4005126953125 3502.858154296875 391.36029052734375Q3484.318359375 430.320068359375 3449.8585815429688 450.1600341796875Q3415.3988037109375 470.0 3367.3988037109375 470.0Q3319.558837890625 470.0 3282.8187866210938 445.0Q3246.0787353515625 420.0 3224.918701171875 377.5Q3203.7586669921875 335.0 3203.7586669921875 280.0H3226.39794921875Q3226.39794921875 315.4005126953125 3242.0181884765625 343.801025390625Q3257.638427734375 372.2015380859375 3285.8187866210938 388.8018798828125Q3313.9991455078125 405.4022216796875 3350.5994873046875 405.4022216796875Q3402.64013671875 405.4022216796875 3427.6202392578125 374.72186279296875Q3452.600341796875 344.04150390625 3452.600341796875 286.4013671875ZM3843.39794921875 460.0H3774.600341796875V0.0H3843.39794921875ZM3987.9991455078125 382.88232421875 4025.9178466796875 439.600341796875Q4008.718017578125 457.0 3988.0181884765625 463.5Q3967.318359375 470.0 3943.5986328125 470.0Q3909.998291015625 470.0 3879.638427734375 445.0Q3849.278564453125 420.0 3830.8187866210938 377.5Q3812.3590087890625 335.0 3812.3590087890625 280.0H3843.39794921875Q3843.39794921875 315.4005126953125 3850.858154296875 343.801025390625Q3858.318359375 372.2015380859375 3876.7586669921875 388.8018798828125Q3895.198974609375 405.4022216796875 3926.79931640625 405.4022216796875Q3945.9991455078125 405.4022216796875 3959.2391967773438 399.9022216796875Q3972.479248046875 394.4022216796875 3987.9991455078125 382.88232421875Z" fill="#0A0A0A"/></g></svg>